# xmcd
# 
# Track frame offsets:
#     182
#     17397
#     36157
#     52175
#     70337
#     83615
#     100865
#     116335
#     131190
#     145980
# 
# Disc length: 2105
# 
# Revision: 3
# Processed by: cddbd v1.5.2PL0 Copyright (c) Steve Scherf et al.
# Submitted via: BonkEnc v1.0.8
# 
DISCID=8508370a
DTITLE=Os Nativos - Santo Chão
DYEAR=0
DGENRE=
TTITLE0=Santo Chão
TTITLE1=Castelhana
TTITLE2=Paixão de Beato
TTITLE3=Chasque Para Dom Munhoz
TTITLE4=O Trem
TTITLE5=Domingueiro
TTITLE6=Baila Baila Morena
TTITLE7=Nova Realidade
TTITLE8=Toque Nativo
TTITLE9=Busquei No Mate
EXTD=
EXTT0=J.G.Machado
EXTT1=Elton Saldanha/Rui Biriva
EXTT2=P.Do Acordeon
EXTT3=J.G.Machado/A.Pimentel
EXTT4=Elton Saldanha
EXTT5=L.Bastos/R.Bauer
EXTT6=M.Monteiro/D.Monteiro
EXTT7=R.Baurel/L.Bastos
EXTT8=E.Vargas/L.G.Pafdilha/R.Pires
EXTT9=J.Rodrigues/L.Bastos
PLAYORDER=
